<?xml version="1.0" encoding="UTF-8"?>
<svg version="1.1" xmlns="http://www.w3.org/2000/svg" width="565" height="523">
<path d="M0 0 C3.64747782 0.68852545 7.27805973 1.138199 10.97021484 1.50683594 C37.29288481 4.13850753 59.17346715 16.83713159 76.37890625 36.78515625 C89.2783076 52.88028026 97.94500869 71.76310232 103.06640625 91.66015625 C103.37034302 92.82659668 103.37034302 92.82659668 103.68041992 94.01660156 C106.88086085 107.06403951 107.76191276 120.04389348 107.69140625 133.41015625 C107.6892511 134.15149811 107.68709595 134.89283997 107.68487549 135.65664673 C107.62803589 147.89900812 106.96645582 159.79129441 104.37890625 171.78515625 C104.18022949 172.70796387 103.98155273 173.63077148 103.77685547 174.58154297 C100.71647945 188.28331633 96.42553524 201.11970407 90.37890625 213.78515625 C90.0025 214.57905762 89.62609375 215.37295898 89.23828125 216.19091797 C74.46433097 246.87764386 50.26939179 273.515747 17.859375 285.60546875 C7.69616371 289.05023846 -1.81347058 290.96735342 -12.55859375 290.84765625 C-13.33783203 290.84314453 -14.11707031 290.83863281 -14.91992188 290.83398438 C-16.82034643 290.82232533 -18.72073081 290.80439502 -20.62109375 290.78515625 C-20.6122113 291.91331253 -20.60332886 293.04146881 -20.59417725 294.20381165 C-20.51286064 304.86953336 -20.45301787 315.53519163 -20.41384506 326.20115376 C-20.39302842 331.68379515 -20.36481938 337.16618499 -20.31933594 342.64868164 C-20.27566649 347.94606667 -20.25191216 353.24321071 -20.24158478 358.54076195 C-20.23423116 360.55524676 -20.21987178 362.56971935 -20.19817352 364.58410072 C-19.94559864 389.01839661 -19.94559864 389.01839661 -28.37109375 399.09765625 C-28.9846875 399.85691406 -29.59828125 400.61617188 -30.23046875 401.3984375 C-36.16988566 407.32814948 -43.2496034 411.51930462 -50.49609375 415.66015625 C-51.34945313 416.15773438 -52.2028125 416.6553125 -53.08203125 417.16796875 C-59.36242273 420.78515625 -59.36242273 420.78515625 -61.62109375 420.78515625 C-61.6053833 421.82333496 -61.58967285 422.86151367 -61.57348633 423.93115234 C-61.51870318 427.82625401 -61.4845699 431.72132245 -61.45629883 435.61669922 C-61.44132141 437.29449208 -61.42093221 438.97224653 -61.39477539 440.64990234 C-61.13152757 457.98296506 -63.96011552 470.42786507 -76.17578125 483.4296875 C-89.1700148 495.94649713 -104.99045205 500.11527432 -122.61985779 500.04585266 C-124.19546505 500.05159098 -124.19546505 500.05159098 -125.80290276 500.05744523 C-129.29240077 500.06769308 -132.7817317 500.06379878 -136.27124023 500.05981445 C-138.78538158 500.06416543 -141.2995216 500.06934987 -143.81365967 500.07530212 C-149.91561653 500.0872757 -156.01751268 500.08984873 -162.11947899 500.08750186 C-167.08240993 500.08571352 -172.04532756 500.08747936 -177.00825691 500.0917263 C-177.71656969 500.09232149 -178.42488246 500.09291668 -179.15465926 500.09352991 C-180.59392261 500.09474175 -182.03318596 500.09595588 -183.47244931 500.09717228 C-196.94652745 500.10802953 -210.42058052 500.10589377 -223.89466006 500.09978744 C-236.20138519 500.09461825 -248.50803117 500.10587701 -260.81474065 500.12488566 C-273.47581325 500.14429057 -286.13684846 500.15251551 -298.79793602 500.1487624 C-305.89638346 500.14685459 -312.99476353 500.14929694 -320.09319878 500.16347694 C-326.76881019 500.17667834 -333.4442379 500.17409486 -340.11985779 500.16106606 C-342.56430172 500.15870459 -345.00875686 500.16141946 -347.45318794 500.16968918 C-350.80075591 500.18019441 -354.14779652 500.17202536 -357.49534607 500.15937805 C-358.45286237 500.16675234 -359.41037866 500.17412662 -360.39691061 500.18172437 C-372.02360009 500.0898857 -382.62368831 497.35900907 -391.62109375 489.78515625 C-401.4674172 479.1279591 -404.79297361 467.09631366 -404.74807739 452.83459473 C-404.74963738 452.06296006 -404.75119737 451.29132539 -404.75280464 450.49630785 C-404.75677568 447.92395112 -404.75363949 445.35165399 -404.75048828 442.77929688 C-404.75184458 440.92664048 -404.75362581 439.07398435 -404.75579834 437.22132874 C-404.76036064 432.18308032 -404.75858399 427.1448524 -404.75541925 422.10660362 C-404.7528714 416.77651289 -404.75524157 411.44642381 -404.75680542 406.11633301 C-404.75862764 397.11449881 -404.75622733 388.1126728 -404.75146484 379.11083984 C-404.74668815 369.97964947 -404.74659625 360.84847548 -404.75146484 351.71728516 C-404.76647475 322.40634339 -404.74262766 293.09587977 -404.62109375 263.78515625 C-404.61781507 262.95384689 -404.6145364 262.12253754 -404.61115837 261.26603699 C-404.57491511 252.20759305 -404.51790232 243.15014927 -404.4040184 234.09230042 C-404.37740334 231.82953877 -404.35688716 229.56669492 -404.34326553 227.30381775 C-404.24443297 212.55702558 -403.67792629 199.8221024 -392.62109375 188.78515625 C-386.51851204 183.63138912 -379.6746837 179.77003982 -372.74609375 175.84765625 C-371.01159205 174.85635419 -369.2770949 173.86504406 -367.5428772 172.87324524 C-365.75282012 171.85038396 -363.96148832 170.8297852 -362.16992188 169.80957031 C-356.59972518 166.6352348 -351.04841902 163.42811374 -345.49609375 160.22265625 C-343.88395996 159.29283936 -343.88395996 159.29283936 -342.23925781 158.34423828 C-331.010118 151.86406772 -319.81415947 145.32737387 -308.62109375 138.78515625 C-304.66323901 136.47183587 -300.70498712 134.15919876 -296.74609375 131.84765625 C-295.75891357 131.27120361 -294.7717334 130.69475098 -293.75463867 130.10083008 C-286.45498026 125.8431397 -279.13408769 121.62319573 -271.80859375 117.41015625 C-262.91212463 112.29229498 -254.06457222 107.09867098 -245.24609375 101.84765625 C-235.40419593 95.98833034 -225.50124714 90.252071 -215.54260254 84.59436035 C-206.59703163 79.51189035 -197.71096153 74.34058883 -188.8972168 69.0324707 C-166.79827602 55.81851352 -166.79827602 55.81851352 -153.99609375 59.0390625 C-145.61888372 61.67071894 -141.11404931 65.94817965 -135.62109375 72.78515625 C-135.07582031 71.769375 -134.53054688 70.75359375 -133.96875 69.70703125 C-126.9146075 56.75231347 -118.77703456 45.54582909 -108.62109375 34.78515625 C-107.93660156 34.03621094 -107.25210937 33.28726563 -106.546875 32.515625 C-79.35427951 3.81512218 -38.18237918 -7.28187994 0 0 Z " fill="#06262C" transform="translate(431.62109375,11.21484375)"/>
<path d="M0 0 C34.86314447 -0.06869939 69.72627347 -0.12154567 104.58947103 -0.15319599 C108.70743393 -0.15694801 112.82539668 -0.16083099 116.94335938 -0.16479492 C118.17305331 -0.16597532 118.17305331 -0.16597532 119.42758955 -0.16717956 C132.6934002 -0.1802257 145.95917176 -0.20387517 159.22495924 -0.23145839 C172.84165451 -0.25953465 186.45832935 -0.27618095 200.07505238 -0.28226548 C208.47411028 -0.28637732 216.87305769 -0.29935402 225.27208157 -0.3237494 C231.03529287 -0.33963401 236.79844722 -0.3443942 242.56167881 -0.34050413 C245.88447349 -0.33858679 249.2069203 -0.34313199 252.52970695 -0.35761642 C256.13908798 -0.37257719 259.74799909 -0.36894003 263.35739136 -0.36076355 C264.91871491 -0.37387134 264.91871491 -0.37387134 266.51158035 -0.38724393 C280.11979021 -0.3041184 291.13331554 4.86428024 301.1171875 14.01953125 C311.74087981 25.19424495 314.17039519 36.54631144 314.09765625 51.5234375 C314.09553383 53.17540634 314.09553383 53.17540634 314.09336853 54.86074829 C314.08778752 58.36552692 314.07523846 61.8702408 314.0625 65.375 C314.05748255 67.75650949 314.05292007 70.13801999 314.04882812 72.51953125 C314.03782431 78.34637612 314.02110507 84.17318343 314 90 C313.39580231 90.00586624 312.79160461 90.01173248 312.1690979 90.01777649 C305.84143766 90.08205194 299.51427005 90.16655708 293.18701172 90.26245117 C290.83030725 90.29556457 288.47352606 90.32363813 286.11669922 90.34643555 C282.71548988 90.38023192 279.31497504 90.43256061 275.9140625 90.48828125 C274.87198639 90.49467117 273.82991028 90.5010611 272.7562561 90.50764465 C260.05364749 90.75901115 250.72640735 94.6607412 241.3125 103.125 C233.1003313 111.68173521 230.67048014 121.84223754 230.7890625 133.26171875 C231.44831938 144.94521576 235.2880096 153.84971126 243.875 161.8125 C253.9229818 170.03357601 264.81915677 171.26760938 277.4765625 171.4140625 C279.05345352 171.44311172 279.05345352 171.44311172 280.66220093 171.4727478 C283.98305431 171.53199302 287.30394341 171.57870678 290.625 171.625 C292.89194127 171.66323054 295.15886879 171.70228513 297.42578125 171.7421875 C302.95039786 171.83764847 308.47509889 171.92285295 314 172 C314.07658183 179.4706357 314.12882159 186.94116871 314.16479492 194.41210938 C314.17980477 196.94925723 314.20021897 199.48637948 314.22631836 202.0234375 C314.26304605 205.68756462 314.27980508 209.35134623 314.29296875 213.015625 C314.30845261 214.13487366 314.32393646 215.25412231 314.33988953 216.4072876 C314.34267117 229.66796145 311.53251285 240.11041543 302.26953125 249.8125 C298.31573764 253.43153305 293.94638546 255.96597234 289 258 C288.18816442 258.34220896 287.37632885 258.68441792 286.5398922 259.03699684 C281.73861032 260.34315233 277.22615278 260.28264562 272.2718811 260.26742554 C271.19025771 260.27195665 270.10863431 260.27648776 268.99423444 260.28115618 C265.36932252 260.29381806 261.7445605 260.29217864 258.11962891 260.29052734 C255.52091783 260.29651142 252.92220854 260.30331669 250.32350159 260.31088257 C243.99695217 260.32747783 237.67044002 260.33299143 231.34387065 260.33410732 C226.20057935 260.33505841 221.05730033 260.33917171 215.91401291 260.34550858 C201.32553585 260.36311623 186.73708818 260.37234808 172.14860041 260.37084763 C171.36254079 260.37076772 170.57648117 260.3706878 169.76660156 260.37060547 C168.97958014 260.37052371 168.19255872 260.37044195 167.38168816 260.37035771 C154.62573344 260.36954473 141.86989677 260.38868655 129.1139762 260.4168822 C116.0101154 260.44561798 102.90631217 260.45942215 89.80241907 260.45769465 C82.44801812 260.45703103 75.09374098 260.46251097 67.73936844 260.48405075 C60.82332264 260.50417731 53.90754236 260.50358177 46.99148369 260.48901749 C44.45344473 260.48692395 41.91538955 260.49166255 39.37737846 260.5037384 C35.91197256 260.51915872 32.44747238 260.50990279 28.98208618 260.49447632 C27.47652741 260.50990701 27.47652741 260.50990701 25.94055331 260.52564943 C18.6687142 260.45414146 13.39274936 258.85831628 7.79296875 254.140625 C6.99826172 253.20476562 6.99826172 253.20476562 6.1875 252.25 C5.37345703 251.32960938 5.37345703 251.32960938 4.54296875 250.390625 C0.24633424 243.73356089 -0.43478073 237.63897748 -0.36076355 229.92663574 C-0.36332682 228.93974778 -0.3658901 227.95285981 -0.36853105 226.93606615 C-0.37345473 223.6440578 -0.35699909 220.35251266 -0.34057617 217.06054688 C-0.3397296 214.69486502 -0.34020564 212.32918237 -0.34190369 209.96350098 C-0.34276386 203.55088684 -0.32513418 197.1384413 -0.30418181 190.72586632 C-0.28588364 184.70035713 -0.28431093 178.67482914 -0.2812262 172.6492973 C-0.27466871 160.71864042 -0.25472669 148.78804526 -0.22631836 136.85742188 C-0.19875955 125.2714875 -0.1775349 113.68556993 -0.16479492 102.09960938 C-0.16400675 101.38483222 -0.16321858 100.67005507 -0.16240653 99.93361801 C-0.15849127 96.34760609 -0.15470018 92.76159405 -0.15097082 89.17558193 C-0.11989682 59.45034662 -0.0668564 29.72517727 0 0 Z " fill="#0C6364" transform="translate(42,236)"/>
<path d="M0 0 C1.68514495 1.47921069 3.35351242 2.97787766 5 4.5 C6.03833984 5.41845703 6.03833984 5.41845703 7.09765625 6.35546875 C22.47680906 20.69507644 31.46766997 40.55865401 37 60.5 C37.31759277 61.6122998 37.31759277 61.6122998 37.64160156 62.74707031 C44.01674959 86.13608407 43.40315823 114.94870972 38 138.5 C37.82307617 139.2945459 37.64615234 140.0890918 37.46386719 140.90771484 C29.55393132 175.58711414 10.86734229 210.50752193 -19.48046875 230.43359375 C-23.39880088 232.79944287 -27.4435931 234.88235209 -31.5625 236.875 C-32.22217773 237.19702393 -32.88185547 237.51904785 -33.56152344 237.85083008 C-43.50424644 242.42627458 -53.48993988 244.04409187 -64.375 243.9375 C-65.46772217 243.92992676 -66.56044434 243.92235352 -67.6862793 243.91455078 C-76.07380487 243.74382186 -83.20040822 242.76423593 -91 239.5 C-92.56041016 238.86384766 -92.56041016 238.86384766 -94.15234375 238.21484375 C-104.42257057 233.5653968 -112.75773698 227.10565756 -117 216.5 C-120.89166778 207.48380785 -126.16140753 200.19129735 -134.03125 194.1875 C-137.55443612 191.2914779 -139.22929433 187.92796613 -141.0625 183.8125 C-141.39975098 183.07136963 -141.73700195 182.33023926 -142.08447266 181.56665039 C-157.54910121 146.35892002 -154.69389463 105.33073311 -143 69.5 C-142.76410156 68.77441895 -142.52820313 68.04883789 -142.28515625 67.30126953 C-135.04818998 45.54437304 -123.03144315 26.78738781 -107 10.5 C-106.24589844 9.72140625 -105.49179687 8.9428125 -104.71484375 8.140625 C-75.87950958 -19.75496415 -32.0673665 -25.60966235 0 0 Z " fill="#F3A225" transform="translate(483,43.5)"/>
<path d="M0 0 C4.62 0 9.24 0 14 0 C14 6.93 14 13.86 14 21 C16.97 21 19.94 21 23 21 C23 14.07 23 7.14 23 0 C27.62 0 32.24 0 37 0 C37 7.26 37 14.52 37 22 C39.3821875 22.061875 39.3821875 22.061875 41.8125 22.125 C51.85037184 23.07975902 58.85715079 28.0962561 65.34375 35.55859375 C69.38255618 41.51202268 70.55729225 46.79233903 70.5 53.8125 C70.49572998 54.60422607 70.49145996 55.39595215 70.48706055 56.21166992 C70.24947236 64.40300546 67.73413041 69.79906684 62.4375 76 C60.32815876 77.73074153 58.51602542 78.97495261 56 80 C56 80.66 56 81.32 56 82 C56.74121094 82.24621094 57.48242188 82.49242187 58.24609375 82.74609375 C65.21464232 85.91900735 69.5150798 93.07972561 72.30859375 99.95703125 C75.81957859 110.33129719 73.94532656 119.98076863 70 130 C65.95113773 138.17837917 58.26619121 144.34970593 49.9375 147.6875 C48.91527344 148.10386719 47.89304687 148.52023438 46.83984375 148.94921875 C40.27559275 151.37808191 36.76131771 151 29 151 C28.67 158.59 28.34 166.18 28 174 C23.38 174 18.76 174 14 174 C14 166.41 14 158.82 14 151 C11.36 151 8.72 151 6 151 C5.67 158.59 5.34 166.18 5 174 C0.38 174 -4.24 174 -9 174 C-9.02687864 170.54161528 -9.04677983 167.08343775 -9.0625 163.625 C-9.07087891 162.64015625 -9.07925781 161.6553125 -9.08789062 160.640625 C-9.09272461 159.22910156 -9.09272461 159.22910156 -9.09765625 157.7890625 C-9.10551147 156.48509521 -9.10551147 156.48509521 -9.11352539 155.15478516 C-9 153 -9 153 -8 151 C-16.58 151 -25.16 151 -34 151 C-33.505 142.09 -33.505 142.09 -33 133 C-30.751875 132.896875 -28.50375 132.79375 -26.1875 132.6875 C-21.36652705 132.61072565 -21.36652705 132.61072565 -17.11328125 130.70703125 C-14.55764411 126.78838764 -14.78972841 122.327588 -14.61108398 117.7722168 C-14.56697388 116.69093002 -14.56697388 116.69093002 -14.52197266 115.58779907 C-14.42595615 113.20841427 -14.33594474 110.82884372 -14.24609375 108.44921875 C-14.18058862 106.79017365 -14.11475223 105.13114159 -14.04859924 103.47212219 C-13.9107872 99.9946113 -13.77571957 96.51700877 -13.64282227 93.03930664 C-13.47291302 88.59405845 -13.29818829 84.14901719 -13.12164211 79.70402813 C-12.95302929 75.45249372 -12.78703463 71.20085813 -12.62109375 66.94921875 C-12.58939024 66.14346594 -12.55768673 65.33771313 -12.52502251 64.50754356 C-12.43507541 62.21040437 -12.3470127 59.91320068 -12.25952148 57.6159668 C-12.18410378 55.65883003 -12.18410378 55.65883003 -12.10716248 53.66215515 C-11.73052707 46.72726448 -11.73052707 46.72726448 -13 40 C-16.29370921 38.35314539 -19.93002032 38.54605834 -23.56640625 38.28125 C-26 38 -26 38 -27 37 C-27.09981214 34.3226862 -27.13879875 31.67695825 -27.125 29 C-27.12886719 28.24976562 -27.13273437 27.49953125 -27.13671875 26.7265625 C-27.12661053 21.12661053 -27.12661053 21.12661053 -26 20 C-24.07332493 19.91251793 -22.14348139 19.89302666 -20.21484375 19.90234375 C-18.46010742 19.90717773 -18.46010742 19.90717773 -16.66992188 19.91210938 C-15.43822266 19.92048828 -14.20652344 19.92886719 -12.9375 19.9375 C-11.08415039 19.94426758 -11.08415039 19.94426758 -9.19335938 19.95117188 C-6.12888587 19.96300382 -3.06443707 19.98093992 0 20 C0 13.4 0 6.8 0 0 Z " fill="#06252E" transform="translate(410,71)"/>
<path d="M0 0 C3.50688528 2.4158543 5.31336183 5.01588982 6.8125 8.9375 C7.35198032 12.49520243 7.33933642 15.97055992 7.25 19.5625 C7.22663574 20.53799805 7.20327148 21.51349609 7.17919922 22.51855469 C7.11532559 24.45273809 7.03602267 26.38648476 6.93994141 28.31933594 C6.83302758 30.5157802 6.78979856 32.715197 6.76171875 34.9140625 C6.33703317 39.20185187 5.69797989 42.37130181 2.25830078 45.22851562 C-2.10560513 48.14458889 -6.81681844 50.35348293 -11.54150391 52.61572266 C-16.0661479 54.87595725 -20.35952074 57.51314632 -24.6875 60.125 C-33.87056874 65.59333219 -43.11350626 70.95229127 -52.37744141 76.28222656 C-59.62212773 80.45227613 -66.84808816 84.65282361 -74.0625 88.875 C-83.48852906 94.38890099 -92.96016695 99.81914578 -102.44763184 105.22625732 C-111.6138876 110.44605838 -111.6138876 110.44605838 -120.72077942 115.76843262 C-122.0204994 116.53368432 -123.32458166 117.29163701 -124.63520813 118.03805542 C-128.7342335 120.39252199 -132.6120771 122.92385478 -136.46679688 125.66137695 C-154.2226869 137.72879049 -168.80064751 138.99917032 -189.79827881 138.14233398 C-192.86490825 138.03420796 -195.93074019 137.99655477 -198.99894524 137.96107674 C-202.68472964 137.91684478 -206.3696113 137.84152419 -210.0546875 137.7578125 C-210.74652004 137.74308018 -211.43835258 137.72834785 -212.15114975 137.7131691 C-214.09979605 137.66430179 -216.04777696 137.59077591 -217.99560547 137.51611328 C-219.0985495 137.47753204 -220.20149353 137.43895081 -221.33786011 137.39920044 C-224.50343671 136.88631174 -225.94099279 136.20421058 -228.1875 133.9375 C-228.875 130.625 -228.875 130.625 -228.1875 126.9375 C-222.31230918 120.97753009 -215.06097375 117.22250042 -207.8125 113.1875 C-205.9049689 112.11394285 -203.9990129 111.03762331 -202.0930481 109.96128845 C-200.8389047 109.25339378 -199.58424981 108.54640451 -198.32907104 107.84034729 C-193.70702849 105.23958881 -189.12182646 102.58382765 -184.5625 99.875 C-177.57454888 95.73408993 -170.5406688 91.67555131 -163.5 87.625 C-155.36668371 82.94397574 -147.25733607 78.22713759 -139.1875 73.4375 C-130.16604988 68.08407583 -121.09216812 62.82603543 -112 57.59375 C-104.7144872 53.39984369 -97.44484768 49.17994358 -90.1875 44.9375 C-81.83028386 40.05210391 -73.45269404 35.20352356 -65.0625 30.375 C-51.85900601 22.77146971 -38.69045665 15.10335999 -25.6640625 7.19921875 C-24.97530029 6.7820459 -24.28653809 6.36487305 -23.5769043 5.93505859 C-22.32877138 5.17728033 -21.08263268 4.41620127 -19.83911133 3.65087891 C-13.14145662 -0.42045758 -7.77602696 -2.59200899 0 0 Z " fill="#0C6465" transform="translate(276.1875,85.0625)"/>
<path d="M0 0 C0.66 0 1.32 0 2 0 C2.07451939 5.69251691 2.12877612 11.38474575 2.16479492 17.07763672 C2.17982075 19.01160635 2.20024726 20.94554226 2.22631836 22.87939453 C2.26297591 25.66968136 2.27978868 28.45951511 2.29296875 31.25 C2.30845261 32.10553467 2.32393646 32.96106934 2.33988953 33.8425293 C2.34186109 40.97942885 0.88126273 46.28262051 -3.25 52.25 C-10.8587853 59.8587853 -19.28598717 61.21876275 -29.73582458 61.30354309 C-31.61262657 61.30217598 -31.61262657 61.30217598 -33.52734375 61.30078125 C-34.83022842 61.30506638 -36.1331131 61.3093515 -37.47547913 61.31376648 C-40.22482388 61.32119839 -42.97404015 61.32095942 -45.72338867 61.31567383 C-49.22798063 61.30988078 -52.7320438 61.32682032 -56.23654842 61.3500185 C-59.60433466 61.36838322 -62.97200785 61.36456889 -66.33984375 61.36328125 C-67.58902084 61.372491 -68.83819794 61.38170074 -70.12522888 61.39118958 C-80.12640965 61.33830946 -88.20259284 59.686452 -95.6328125 52.3984375 C-101.86055637 45.56897924 -102.57034236 38.86489472 -102.4453125 29.7734375 C-101.63206065 22.88219815 -98.2080083 17.79393209 -93.1875 13.125 C-84.83057567 7.55371711 -78.06737106 6.43039998 -68.0070858 6.5141449 C-65.8393195 6.53163237 -63.6728608 6.52377915 -61.50508118 6.5098877 C-56.12265723 6.48046121 -50.74049493 6.49336062 -45.35803223 6.50506592 C-40.79989328 6.51333427 -36.24233247 6.5050707 -31.68427467 6.47593689 C-29.5704349 6.46894424 -27.45767235 6.48538821 -25.34391785 6.50305176 C-16.93816928 6.45941621 -6.3413277 6.3413277 0 0 Z " fill="#0C6364" transform="translate(389,333)"/>
<path d="M0 0 C1.28218414 -0.02398109 1.28218414 -0.02398109 2.590271 -0.04844666 C3.50697571 -0.05380936 4.42368042 -0.05917206 5.36816406 -0.06469727 C6.79615326 -0.07823997 6.79615326 -0.07823997 8.25299072 -0.09205627 C10.26693583 -0.10655406 12.28092798 -0.11544434 14.29492188 -0.11914062 C17.35921831 -0.13100836 20.42148167 -0.18017432 23.48535156 -0.23071289 C25.44627928 -0.24018108 27.40721932 -0.24741422 29.36816406 -0.25219727 C30.73107574 -0.28149574 30.73107574 -0.28149574 32.121521 -0.31138611 C38.49512692 -0.26672721 42.75864474 1.12590113 47.63378906 5.30639648 C51.53226768 9.65551871 51.13360488 14.64605643 51.17285156 20.20874023 C51.18520844 21.16406143 51.19756531 22.11938263 51.21029663 23.10365295 C51.2298278 25.11998386 51.24108878 27.13640964 51.24462891 29.15283203 C51.25873012 32.23103054 51.32610979 35.30518434 51.39550781 38.38256836 C51.40790539 40.34544099 51.41712547 42.3083368 51.42285156 44.27124023 C51.4495694 45.18703354 51.47628723 46.10282684 51.5038147 47.04637146 C51.45558065 51.6004565 51.06292068 54.56758563 47.78173828 57.88378906 C43.02864725 61.30093122 38.15104566 61.17124535 32.47753906 61.10327148 C31.41643921 61.10901184 30.35533936 61.1147522 29.26208496 61.1206665 C27.02642676 61.12473582 24.79069638 61.11375936 22.55517578 61.08862305 C19.14355452 61.05648847 15.73667017 61.08835018 12.32519531 61.12670898 C10.1467995 61.1227439 7.96840661 61.11505606 5.79003906 61.10327148 C4.77631226 61.11541687 3.76258545 61.12756226 2.71813965 61.14007568 C-3.32312899 61.02079499 -6.72291412 60.10564678 -11.1295166 55.8838501 C-13.29275858 53.12454752 -13.50038895 50.48705922 -13.55908203 47.11376953 C-13.57514496 46.27246994 -13.59120789 45.43117035 -13.60775757 44.56437683 C-13.65237367 40.72228963 -13.69326547 36.88037175 -13.71630859 33.03808594 C-13.73286718 31.01388043 -13.76015588 28.98973338 -13.79833984 26.96582031 C-13.85320035 24.04127802 -13.87499565 21.11810327 -13.88964844 18.19311523 C-13.91231781 17.2929216 -13.93498718 16.39272797 -13.95834351 15.46525574 C-13.94406488 11.20298426 -13.77940168 8.23295882 -11.08349609 4.81347656 C-7.46666644 1.47643939 -4.92332715 0.06997088 0 0 Z " fill="#06252C" transform="translate(87.3662109375,340.693603515625)"/>
<path d="M0 0 C3.9790243 -0.08802152 7.95779388 -0.14073233 11.9375 -0.1875 C13.05447266 -0.21263672 14.17144531 -0.23777344 15.32226562 -0.26367188 C23.42302019 -0.33493951 30.74648771 0.27495141 37.375 5.3125 C41.29226069 9.3230288 43.13578739 12.71621765 43.4375 18.3125 C43.20372897 24.08859264 41.53704888 29.41899235 37.421875 33.60546875 C29.3951604 39.77013019 20.77549257 39.25742675 11.0625 39.125 C9.17821289 39.11146484 9.17821289 39.11146484 7.25585938 39.09765625 C4.17037478 39.07419249 1.08528795 39.04136201 -2 39 C-1.04054297 11.44723243 -1.04054297 11.44723243 0 0 Z " fill="#F3A424" transform="translate(418,164)"/>
<path d="M0 0 C25.96702368 -0.6307779 25.96702368 -0.6307779 34.8125 7.625 C37.7250068 11.44236328 38.2567279 15.27776254 38 20 C37.17949054 24.80584114 35.84141323 28.66283098 32.125 31.9375 C27.32631664 35.10463102 23.79782488 36.25433667 18.04296875 36.1953125 C16.93115234 36.18886719 15.81933594 36.18242187 14.67382812 36.17578125 C13.52333984 36.15902344 12.37285156 36.14226562 11.1875 36.125 C10.01767578 36.11597656 8.84785156 36.10695312 7.64257812 36.09765625 C4.76150947 36.07413732 1.88086011 36.04126852 -1 36 C-1.20638953 11.22373113 -1.20638953 11.22373113 0 0 Z " fill="#F2A424" transform="translate(420,110)"/>
<path d="M0 0 C7.92 0 15.84 0 24 0 C23.39916207 5.40754135 22.75649773 10.74677395 22 16.125 C20.58995983 26.70422533 20.38061645 37.34273949 20 48 C11.75 48 3.5 48 -5 48 C-5.30004529 31.49750905 -5.25909443 15.77728329 0 0 Z " fill="#F3A025" transform="translate(296,128)"/>
<path d="M0 0 C11.88 0 23.76 0 36 0 C36 10.89 36 21.78 36 33 C24.12 33 12.24 33 0 33 C0 22.11 0 11.22 0 0 Z " fill="#F1A323" transform="translate(89,355)"/>
<path d="M0 0 C-0.56847656 1.15113281 -1.13695312 2.30226563 -1.72265625 3.48828125 C-7.76188515 15.88051638 -13.64434963 28.5773985 -17 42 C-25.25 42 -33.5 42 -42 42 C-41.30058754 37.80352526 -40.80932725 35.08021597 -39.25 31.34765625 C-38.71705322 30.06894653 -38.71705322 30.06894653 -38.17333984 28.7644043 C-36.55880106 25.04653064 -34.88905152 21.35586615 -33.19238281 17.67480469 C-32.10593086 15.23762868 -31.1504216 12.78540597 -30.2109375 10.2890625 C-24.40064972 -3.48441096 -13.36193643 -1.61576188 0 0 Z " fill="#F1A523" transform="translate(341,75)"/>
<path d="M0 0 C8.25 0 16.5 0 25 0 C25.5775 3.2175 26.155 6.435 26.75 9.75 C28.09722566 17.06843735 29.68642222 23.96211574 32.36328125 30.91796875 C33 33 33 33 32 35 C31.4337793 34.84152588 30.86755859 34.68305176 30.28417969 34.51977539 C27.9654655 33.99214152 25.82641603 33.795844 23.453125 33.68359375 C22.18662109 33.62075195 22.18662109 33.62075195 20.89453125 33.55664062 C20.02183594 33.51732422 19.14914062 33.47800781 18.25 33.4375 C17.36183594 33.39431641 16.47367187 33.35113281 15.55859375 33.30664062 C13.37254037 33.20086385 11.18637911 33.09877454 9 33 C5.89348532 27.22506886 3.85189199 21.72211922 2.25 15.375 C2.02957031 14.55515625 1.80914062 13.7353125 1.58203125 12.890625 C0.38339489 8.25986837 0 4.95383126 0 0 Z " fill="#F2A324" transform="translate(292,189)"/>
<path d="M0 0 C-0.68964844 0.35191406 -1.37929688 0.70382813 -2.08984375 1.06640625 C-15.99098287 8.3697482 -33.65857212 20.7400553 -40.5546875 35.27734375 C-43 38 -43 38 -45.37646484 38.47631836 C-48.35597753 38.59186519 -51.27204177 38.52238626 -54.25 38.375 C-55.796875 38.33439453 -55.796875 38.33439453 -57.375 38.29296875 C-59.9187875 38.22230799 -62.45833099 38.12372078 -65 38 C-51.21390768 18.89155993 -32.0321307 7.80163483 -9.75 1.0625 C-8.64035889 0.72641724 -8.64035889 0.72641724 -7.50830078 0.38354492 C-2.24941557 -1.12470779 -2.24941557 -1.12470779 0 0 Z " fill="#F3A822" transform="translate(393,25)"/>
<path d="M0 0 C0.33 0 0.66 0 1 0 C0.38614189 10.67068244 -0.27527866 21.3362432 -1 32 C6.26 32 13.52 32 21 32 C20.979375 30.329375 20.95875 28.65875 20.9375 26.9375 C20.94346638 21.92573699 21.08743255 16.93970834 21.375 11.9375 C21.44460938 10.68839844 21.51421875 9.43929687 21.5859375 8.15234375 C22 5 22 5 24 2 C23.67 12.56 23.34 23.12 23 34 C14.75 34 6.5 34 -2 34 C-2.020625 30.390625 -2.04125 26.78125 -2.0625 23.0625 C-2.071604 21.94367432 -2.08070801 20.82484863 -2.09008789 19.67211914 C-2.13230769 4.26461538 -2.13230769 4.26461538 0 0 Z " fill="#F4C01A" transform="translate(293,142)"/>
<path d="M0 0 C7.92 0 15.84 0 24 0 C23.67 0.99 23.34 1.98 23 3 C23 2.34 23 1.68 23 1 C19.37 1.33 15.74 1.66 12 2 C12 2.66 12 3.32 12 4 C11.34 4.45375 10.68 4.9075 10 5.375 C9.01 6.179375 9.01 6.179375 8 7 C8 8.32 8 9.64 8 11 C6.72125 11.144375 5.4425 11.28875 4.125 11.4375 C1.74307106 11.70642746 0.15547309 11.92226346 -2 13 C-2.2062504 7.84374012 -1.69930719 5.09792156 0 0 Z " fill="#F6B220" transform="translate(296,128)"/>
<path d="M0 0 C2.64 0 5.28 0 8 0 C8 7.26 8 14.52 8 22 C7.67 20.68 7.34 19.36 7 18 C6.01 18 5.02 18 4 18 C3.34 18.66 2.68 19.32 2 20 C2 14.39 2 8.78 2 3 C3.65 2.67 5.3 2.34 7 2 C5.02 2 3.04 2 1 2 C1 6.29 1 10.58 1 15 C0.67 15 0.34 15 0 15 C0 10.05 0 5.1 0 0 Z " fill="#F6B31E" transform="translate(416,222)"/>
<path d="M0 0 C0.33 0 0.66 0 1 0 C1 5.61 1 11.22 1 17 C9.58 17 18.16 17 27 17 C26.67 24.59 26.34 32.18 26 40 C30.62 40 35.24 40 40 40 C40 40.33 40 40.66 40 41 C37.52076199 41.02685095 35.0418116 41.04676547 32.5625 41.0625 C31.85544922 41.07087891 31.14839844 41.07925781 30.41992188 41.08789062 C28.61306441 41.09653588 26.80612397 41.05220011 25 41 C24 40 24 40 23.97827148 37.95874023 C24.04896851 36.64691772 24.04896851 36.64691772 24.12109375 35.30859375 C24.19360352 33.89223633 24.19360352 33.89223633 24.26757812 32.44726562 C24.32365234 31.45404297 24.37972656 30.46082031 24.4375 29.4375 C24.48970703 28.44041016 24.54191406 27.44332031 24.59570312 26.41601562 C24.7258237 23.94372478 24.86080181 21.4717937 25 19 C23.91730835 19.00785522 23.91730835 19.00785522 22.81274414 19.01586914 C19.56267151 19.03657358 16.31261272 19.04963918 13.0625 19.0625 C11.35803711 19.07506836 11.35803711 19.07506836 9.61914062 19.08789062 C8.53955078 19.09111328 7.45996094 19.09433594 6.34765625 19.09765625 C4.84730835 19.10551147 4.84730835 19.10551147 3.31665039 19.11352539 C1 19 1 19 0 18 C-0.08631874 16.65732587 -0.10706473 15.31025678 -0.09765625 13.96484375 C-0.09443359 13.15595703 -0.09121094 12.34707031 -0.08789062 11.51367188 C-0.07951172 10.66353516 -0.07113281 9.81339844 -0.0625 8.9375 C-0.05798828 8.08349609 -0.05347656 7.22949219 -0.04882812 6.34960938 C-0.03700373 4.23304337 -0.01906769 2.11651315 0 0 Z " fill="#FCC219" transform="translate(375,205)"/>
<path d="M0 0 C1 2 1 2 1 4 C1.33 4.99 1.66 5.98 2 7 C2.99 7 3.98 7 5 7 C5 6.34 5 5.68 5 5 C6.32 5 7.64 5 9 5 C9 4.34 9 3.68 9 3 C9.66 3.33 10.32 3.66 11 4 C9.546875 6.48046875 9.546875 6.48046875 7 9 C4.06455404 9.6295563 1.23528703 9.47339855 -1.75 9.3125 C-2.54277344 9.28994141 -3.33554687 9.26738281 -4.15234375 9.24414062 C-6.1023762 9.18540471 -8.05143312 9.09572654 -10 9 C-9 6 -9 6 -7.125 4.875 C-5.44294273 4.18238818 -3.72572449 3.5752415 -2 3 C-2 2.34 -2 1.68 -2 1 C-1.34 0.67 -0.68 0.34 0 0 Z " fill="#F6A625" transform="translate(341,53)"/>
<path d="M0 0 C3.125 -0.1875 3.125 -0.1875 6 0 C6 1.65 6 3.3 6 5 C5.67 3.68 5.34 2.36 5 1 C3.68 1 2.36 1 1 1 C1.33 5.95 1.66 10.9 2 16 C2.66 15.67 3.32 15.34 4 15 C4.66 15.66 5.32 16.32 6 17 C5.625 19.125 5.625 19.125 5 21 C2.69 21 0.38 21 -2 21 C-2.05390357 18.06225537 -2.0936255 15.12549768 -2.125 12.1875 C-2.14175781 11.35412109 -2.15851563 10.52074219 -2.17578125 9.66210938 C-2.18222656 8.85966797 -2.18867188 8.05722656 -2.1953125 7.23046875 C-2.20578613 6.49207764 -2.21625977 5.75368652 -2.22705078 4.99291992 C-2 3 -2 3 0 0 Z " fill="#E79B24" transform="translate(417,224)"/>
<path d="M0 0 C0.33 0 0.66 0 1 0 C1 6.93 1 13.86 1 21 C4.63 21 8.26 21 12 21 C12 15.39 12 9.78 12 4 C12.33 4 12.66 4 13 4 C13 10.27 13 16.54 13 23 C8.38 23 3.76 23 -1 23 C-0.67 15.41 -0.34 7.82 0 0 Z " fill="#010E35" transform="translate(425,222)"/>
<path d="M0 0 C3.90739255 1.95369627 4.67242885 8.15004368 6 12 C12.6 12.33 19.2 12.66 26 13 C25.01 10.36 24.02 7.72 23 5 C22.8125 2 22.8125 2 23 0 C25.49551158 2.49551158 26.07575992 4.66076626 27.1875 8 C27.55230469 9.0725 27.91710937 10.145 28.29296875 11.25 C29 14 29 14 28 16 C27.4337793 15.84152588 26.86755859 15.68305176 26.28417969 15.51977539 C23.9654655 14.99214152 21.82641603 14.795844 19.453125 14.68359375 C18.60878906 14.64169922 17.76445312 14.59980469 16.89453125 14.55664062 C16.02183594 14.51732422 15.14914062 14.47800781 14.25 14.4375 C13.36183594 14.39431641 12.47367187 14.35113281 11.55859375 14.30664062 C9.37254037 14.20086385 7.18637911 14.09877454 5 14 C4.34391992 12.7421986 3.69409078 11.4811355 3.046875 10.21875 C2.68432617 9.51685547 2.32177734 8.81496094 1.94824219 8.09179688 C0.7454667 5.43850635 0.28878386 2.8878386 0 0 Z " fill="#F9CE1A" transform="translate(296,208)"/>
<path d="M0 0 C0.33 0 0.66 0 1 0 C1.3122776 6.14427281 0.15608933 11.5498988 -1.3125 17.5 C-1.52583984 18.41136719 -1.73917969 19.32273438 -1.95898438 20.26171875 C-3.21133045 25.44306698 -4.73840702 30.17173111 -7 35 C-8 33 -8 33 -7.40625 30.828125 C-7.1071875 29.97734375 -6.808125 29.1265625 -6.5 28.25 C-5.1740956 24.11029848 -4.76216813 21.27614646 -6 17 C-5.01 16.34 -4.02 15.68 -3 15 C-3 13.05834226 -3.00864032 11.11557277 -3.09375 9.17578125 C-2.94268332 5.6697753 -1.55695614 3.11391229 0 0 Z " fill="#EFB81D" transform="translate(521,170)"/>
<path d="M0 0 C0.33 0 0.66 0 1 0 C1 6.27 1 12.54 1 19 C2.65 19 4.3 19 6 19 C6 13.06 6 7.12 6 1 C6.33 1 6.66 1 7 1 C7 7.6 7 14.2 7 21 C4.36 21 1.72 21 -1 21 C-1.02719556 18.62492145 -1.04693247 16.25016036 -1.0625 13.875 C-1.07087891 13.20984375 -1.07925781 12.5446875 -1.08789062 11.859375 C-1.10782292 7.79318646 -0.78890161 3.9879908 0 0 Z " fill="#FBBF1B" transform="translate(425,71)"/>
<path d="M0 0 C0.103125 0.639375 0.20625 1.27875 0.3125 1.9375 C0.539375 2.618125 0.76625 3.29875 1 4 C1.99 4.33 2.98 4.66 4 5 C4 16.22 4 27.44 4 39 C3.67 39 3.34 39 3 39 C2.56848992 34.57128352 2.14140032 30.14216878 1.71826172 25.71264648 C1.57394518 24.20829995 1.42845711 22.70406531 1.28173828 21.19995117 C1.07009828 19.0281216 0.86278512 16.85591402 0.65625 14.68359375 C0.53056641 13.37962646 0.40488281 12.07565918 0.27539062 10.73217773 C0.01022009 7.13850583 -0.04892138 3.60183638 0 0 Z " fill="#010C35" transform="translate(522,111)"/>
<path d="M0 0 C0.66 0 1.32 0 2 0 C3.65 4.29 5.3 8.58 7 13 C13.27 13.33 19.54 13.66 26 14 C26 14.33 26 14.66 26 15 C15.11 15.495 15.11 15.495 4 16 C3.67 14.02 3.34 12.04 3 10 C2.34 10 1.68 10 1 10 C0.63720544 8.71073008 0.28503302 7.41846728 -0.0625 6.125 C-0.35833984 5.04605469 -0.35833984 5.04605469 -0.66015625 3.9453125 C-1 2 -1 2 0 0 Z " fill="#36342F" transform="translate(294,208)"/>
<path d="M0 0 C-0.71285156 0.37511719 -1.42570312 0.75023438 -2.16015625 1.13671875 C-7.73575285 4.11587333 -12.95571902 7.18876548 -18 11 C-18.66 10.67 -19.32 10.34 -20 10 C-19.67 9.01 -19.34 8.02 -19 7 C-16.4375 5.8125 -16.4375 5.8125 -14 5 C-16.31 5.66 -18.62 6.32 -21 7 C-21 6.34 -21 5.68 -21 5 C-3.35983264 -1.67991632 -3.35983264 -1.67991632 0 0 Z " fill="#ECBB1C" transform="translate(393,25)"/>
<path d="M0 0 C2 2 2 2 2.23046875 4.49609375 C2.21628906 5.46675781 2.20210938 6.43742188 2.1875 7.4375 C2.18105469 8.40558594 2.17460937 9.37367188 2.16796875 10.37109375 C2 13 2 13 1 16 C0.34 16 -0.32 16 -1 16 C-1.12375 16.928125 -1.2475 17.85625 -1.375 18.8125 C-2 22 -2 22 -4 25 C-3.855625 24.19046875 -3.71125 23.3809375 -3.5625 22.546875 C-2.7923352 17.69055804 -2.27576508 12.81375345 -1.75 7.92578125 C-1.10770975 2.2154195 -1.10770975 2.2154195 0 0 Z " fill="#1E2830" transform="translate(482,175)"/>
<path d="M0 0 C2 1 2 1 2.75 2.9375 C3.89184215 5.32361989 3.89184215 5.32361989 7 6 C10 7 10 7 11.25 8.875 C11.4975 9.57625 11.745 10.2775 12 11 C12.65684499 12.33819912 13.32224575 13.67226832 14 15 C13.0925 14.13375 12.185 13.2675 11.25 12.375 C6.41604231 8.18889231 0.76416339 5.66911999 -5 3 C-4.360625 2.690625 -3.72125 2.38125 -3.0625 2.0625 C-1.06389179 1.1654837 -1.06389179 1.1654837 0 0 Z " fill="#F2B71D" transform="translate(461,91)"/>
<path d="M0 0 C0 0.66 0 1.32 0 2 C-1.98 2.66 -3.96 3.32 -6 4 C-6 4.66 -6 5.32 -6 6 C-10.30322683 7.46939453 -14.62297367 8.77443263 -19 10 C-19.33 9.34 -19.66 8.68 -20 8 C-19.20335937 7.67386719 -18.40671875 7.34773438 -17.5859375 7.01171875 C-10.89236181 4.29348041 -10.89236181 4.29348041 -4.375 1.1875 C-2 0 -2 0 0 0 Z " fill="#1C2331" transform="translate(460,276)"/>
<path d="M0 0 C0.66 0 1.32 0 2 0 C2.48164188 2.35368393 2.96036648 4.70790155 3.4375 7.0625 C3.57220703 7.71927734 3.70691406 8.37605469 3.84570312 9.05273438 C4.71470632 13.35535995 5.4172492 17.64917124 6 22 C4 21 4 21 3.21875 18.8125 C2.86296875 17.4203125 2.86296875 17.4203125 2.5 16 C2.24734375 15.01257813 1.9946875 14.02515625 1.734375 13.0078125 C1.49203125 12.01523438 1.2496875 11.02265625 1 10 C0.77828125 9.11054688 0.5565625 8.22109375 0.328125 7.3046875 C-0.16902043 5.21533305 -0.59189259 3.10855494 -1 1 C-0.67 0.67 -0.34 0.34 0 0 Z " fill="#0C1934" transform="translate(320,203)"/>
<path d="M0 0 C0.99 0.99 1.98 1.98 3 3 C2.37590455 5.04194335 1.75068171 7.08354215 1.125 9.125 C0.77695312 10.26195312 0.42890625 11.39890625 0.0703125 12.5703125 C-0.91496533 15.72751664 -1.94272536 18.86627606 -3 22 C-3.9867097 18.88925167 -3.96838493 16.83557243 -3.22265625 13.671875 C-3.03896484 12.87265625 -2.85527344 12.0734375 -2.66601562 11.25 C-2.46685547 10.425 -2.26769531 9.6 -2.0625 8.75 C-1.86720703 7.90953125 -1.67191406 7.0690625 -1.47070312 6.203125 C-0.98857714 4.13351102 -0.49536137 2.06648605 0 0 Z " fill="#101935" transform="translate(521,177)"/>
<path d="M0 0 C2.48674167 0.44406101 3.91700788 0.93574804 5.9375 2.5 C8.29858218 4.21715068 10.13690678 4.60234816 13 5 C13 6.98 13 8.96 13 11 C12.01 11.33 11.02 11.66 10 12 C9.69707031 11.46890625 9.39414062 10.9378125 9.08203125 10.390625 C6.51766143 6.06670297 4.22396727 2.8964347 0 0 Z " fill="#0E1E31" transform="translate(450,166)"/>
<path d="M0 0 C2.46305142 3.0009592 3.91069397 5.86188511 5.25 9.5 C5.60578125 10.4384375 5.9615625 11.376875 6.328125 12.34375 C7.01941191 15.07674477 6.95925156 16.39280344 6 19 C6 18.34 6 17.68 6 17 C3.525 16.01 3.525 16.01 1 15 C1.66 14.67 2.32 14.34 3 14 C2.86722656 13.40832031 2.73445312 12.81664063 2.59765625 12.20703125 C1.68994822 8.14553475 0.7908887 4.08625829 0 0 Z " fill="#F1B81D" transform="translate(511,82)"/>
<path d="M0 0 C2.31 0 4.62 0 7 0 C7 0.66 7 1.32 7 2 C8.98 2 10.96 2 13 2 C12.67 2.99 12.34 3.98 12 5 C10.56163249 4.88541307 9.12429034 4.75790884 7.6875 4.625 C6.88699219 4.55539062 6.08648437 4.48578125 5.26171875 4.4140625 C3 4 3 4 0 2 C0 1.34 0 0.68 0 0 Z " fill="#ECAA21" transform="translate(398,282)"/>
<path d="M0 0 C2.49551158 2.49551158 3.07575992 4.66076626 4.1875 8 C4.55230469 9.0725 4.91710937 10.145 5.29296875 11.25 C6 14 6 14 5 16 C2.525 15.01 2.525 15.01 0 14 C0.99 13.67 1.98 13.34 3 13 C2.505 11.783125 2.01 10.56625 1.5 9.3125 C0.27520559 6.07513262 -0.32803185 3.49900643 0 0 Z " fill="#EBBA1D" transform="translate(319,208)"/>
<path d="M0 0 C1.875 0.26953125 1.875 0.26953125 4 1 C5.125 2.63671875 5.125 2.63671875 6 4.6875 C7.69658829 8.42403373 9.64851662 11.64073802 12 15 C11.67 15.66 11.34 16.32 11 17 C9.34949862 14.73243277 7.70449972 12.46121039 6.0625 10.1875 C5.59392578 9.54490234 5.12535156 8.90230469 4.64257812 8.24023438 C3.9706543 7.30727539 3.9706543 7.30727539 3.28515625 6.35546875 C2.87144775 5.78465576 2.45773926 5.21384277 2.03149414 4.62573242 C1 3 1 3 0 0 Z " fill="#151633" transform="translate(496,56)"/>
<path d="M0 0 C3.375 4.5 3.375 4.5 3.1875 8.75 C3.16042969 9.54921875 3.13335937 10.3484375 3.10546875 11.171875 C3.07066406 11.77515625 3.03585937 12.3784375 3 13 C2.67 13 2.34 13 2 13 C1.67 14.65 1.34 16.3 1 18 C0.67 18 0.34 18 0 18 C0 12.06 0 6.12 0 0 Z " fill="#172E30" transform="translate(414,181)"/>
<path d="M0 0 C0.33 0.66 0.66 1.32 1 2 C0.06553465 4.03144641 -0.93224776 6.03533587 -2 8 C-2.99 8 -3.98 8 -5 8 C-5.66 9.98 -6.32 11.96 -7 14 C-7.33 13.01 -7.66 12.02 -8 11 C-6.85546875 8.80859375 -6.85546875 8.80859375 -5.1875 6.4375 C-4.64480469 5.65246094 -4.10210937 4.86742187 -3.54296875 4.05859375 C-2 2 -2 2 0 0 Z " fill="#122528" transform="translate(39,200)"/>
<path d="M0 0 C0.33 1.32 0.66 2.64 1 4 C1.99 4.33 2.98 4.66 4 5 C3.4140625 11.15234375 3.4140625 11.15234375 3 13 C2.01 13.495 2.01 13.495 1 14 C0.67 9.38 0.34 4.76 0 0 Z " fill="#061934" transform="translate(522,111)"/>
<path d="M0 0 C0.99 0.66 1.98 1.32 3 2 C2.67 3.65 2.34 5.3 2 7 C0.02 7.33 -1.96 7.66 -4 8 C-2.87548273 5.0280615 -1.77706209 2.66559313 0 0 Z " fill="#0B1D34" transform="translate(500,234)"/>
<path d="M0 0 C1.32 0.33 2.64 0.66 4 1 C3.84819155 3.65664779 3.47988575 5.45217862 1.703125 7.48046875 C0.125 8.875 0.125 8.875 -3 11 C-3.99 10.67 -4.98 10.34 -6 10 C-5.195625 9.649375 -4.39125 9.29875 -3.5625 8.9375 C-0.6132233 7.14332716 -0.6132233 7.14332716 -0.1875 3.3125 C-0.125625 2.219375 -0.06375 1.12625 0 0 Z " fill="#F0B61B" transform="translate(452,133)"/>
<path d="M0 0 C2.60018816 3.90028225 2.15085514 7.47434569 2 12 C1.67 12 1.34 12 1 12 C0.67 13.65 0.34 15.3 0 17 C-0.33 17 -0.66 17 -1 17 C-1.02699725 14.72923158 -1.04639453 12.45837179 -1.0625 10.1875 C-1.07990234 8.29064453 -1.07990234 8.29064453 -1.09765625 6.35546875 C-1 3 -1 3 0 0 Z " fill="#1A2A2E" transform="translate(418,111)"/>
<path d="M0 0 C0.66 0.33 1.32 0.66 2 1 C-3.91684902 6.88183807 -3.91684902 6.88183807 -8.4375 7.375 C-9.283125 7.25125 -10.12875 7.1275 -11 7 C-7.53252172 4.22601737 -3.93597489 2.04087587 0 0 Z " fill="#112327" transform="translate(68,182)"/>
<path d="M0 0 C0.33 0 0.66 0 1 0 C0.03644647 11.52164009 0.03644647 11.52164009 -1 17 C-3.29013653 13.5647952 -3.17842973 12.014669 -3 8 C-2.34 8 -1.68 8 -1 8 C-0.67 5.36 -0.34 2.72 0 0 Z " fill="#0B1435" transform="translate(293,133)"/>
<path d="M0 0 C0.66 0.33 1.32 0.66 2 1 C0.33992853 3.43081895 -0.46946766 4.61312338 -3 6 C-7.07640594 6.1484257 -10.97962387 5.6476204 -15 5 C-15 4.67 -15 4.34 -15 4 C-11.37 4 -7.74 4 -4 4 C-4 3.34 -4 2.68 -4 2 C-2.68 2 -1.36 2 0 2 C0 1.34 0 0.68 0 0 Z " fill="#F09B27" transform="translate(350,56)"/>
<path d="M0 0 C1.65 0 3.3 0 5 0 C5 0.99 5 1.98 5 3 C3.25215171 3.36463732 1.50159498 3.7163078 -0.25 4.0625 C-1.71179688 4.35833984 -1.71179688 4.35833984 -3.203125 4.66015625 C-5.868119 4.98397535 -7.48871723 4.85503199 -10 4 C-6.38026598 2.68373308 -3.90432869 2 0 2 C0 1.34 0 0.68 0 0 Z " fill="#101C34" transform="translate(424,25)"/>
<path d="M0 0 C0.33 0.66 0.66 1.32 1 2 C2.65 1.67 4.3 1.34 6 1 C6 1.66 6 2.32 6 3 C6.66 3.33 7.32 3.66 8 4 C7.34 4.66 6.68 5.32 6 6 C5.01 5.34 4.02 4.68 3 4 C2.34 5.32 1.68 6.64 1 8 C0.67 5.36 0.34 2.72 0 0 Z " fill="#F5B122" transform="translate(294,199)"/>
<path d="M0 0 C1.04005702 3.38018531 1.08004482 6.4780279 1 10 C0.34 10 -0.32 10 -1 10 C-1.33 10.66 -1.66 11.32 -2 12 C-1.85904936 10.3745692 -1.71207913 8.74965949 -1.5625 7.125 C-1.48128906 6.22007812 -1.40007812 5.31515625 -1.31640625 4.3828125 C-1 2 -1 2 0 0 Z " fill="#061834" transform="translate(321,127)"/>
<path d="M0 0 C0.99 0 1.98 0 3 0 C3.1953125 6.0546875 3.1953125 6.0546875 3 8 C2.34 8.66 1.68 9.32 1 10 C0.67 6.7 0.34 3.4 0 0 Z " fill="#E5A920" transform="translate(332,190)"/>
<path d="M0 0 C0.33 0.66 0.66 1.32 1 2 C-0.98 3.32 -2.96 4.64 -5 6 C-4.67 6.66 -4.34 7.32 -4 8 C-5.65 7.67 -7.3 7.34 -9 7 C-6.19195732 4.03595495 -3.81684226 1.55500981 0 0 Z " fill="#F6B91D" transform="translate(359,36)"/>
<path d="M0 0 C-0.66 1.32 -1.32 2.64 -2 4 C-3.32 3.67 -4.64 3.34 -6 3 C-6 2.01 -6 1.02 -6 0 C-3.50907189 -1.24546405 -2.58919267 -0.7767578 0 0 Z " fill="#EBAA20" transform="translate(457,194)"/>
<path d="M0 0 C1 3 1 3 0.22265625 5.04296875 C-0.16019531 5.75066406 -0.54304688 6.45835938 -0.9375 7.1875 C-1.31777344 7.90292969 -1.69804687 8.61835937 -2.08984375 9.35546875 C-2.54037109 10.16951172 -2.54037109 10.16951172 -3 11 C-4.17841928 7.46474216 -3.91399027 5.5797952 -3 2 C-2.01 1.34 -1.02 0.68 0 0 Z " fill="#111735" transform="translate(306,94)"/>
<path d="M0 0 C-0.33 0.66 -0.66 1.32 -1 2 C-4.43812051 2.76402678 -7.46528079 3 -11 3 C-4.33333333 -1.44444444 -4.33333333 -1.44444444 0 0 Z " fill="#101932" transform="translate(451,282)"/>
<path d="M0 0 C1.65 0 3.3 0 5 0 C4 3 4 3 2.125 4.25 C0 5 0 5 -3 4 C-2.34 4 -1.68 4 -1 4 C-0.67 2.68 -0.34 1.36 0 0 Z " fill="#F4B11E" transform="translate(448,277)"/>
<path d="M0 0 C-0.99 0.33 -1.98 0.66 -3 1 C-3 1.66 -3 2.32 -3 3 C-5.64 3.33 -8.28 3.66 -11 4 C-7.64191281 0.32209498 -4.88401581 -0.13200043 0 0 Z " fill="#0A1A1C" transform="translate(268,70)"/>
<path d="M0 0 C0.66 0.33 1.32 0.66 2 1 C-0.475 4.465 -0.475 4.465 -3 8 C-3.66 7.34 -4.32 6.68 -5 6 C-3.86695008 2.60085025 -2.87481525 1.94745549 0 0 Z " fill="#0B1C32" transform="translate(374,36)"/>
<path d="M0 0 C0 0.66 0 1.32 0 2 C-0.66 2 -1.32 2 -2 2 C-2.33 2.99 -2.66 3.98 -3 5 C-4.98 5.33 -6.96 5.66 -9 6 C-3.28571429 0 -3.28571429 0 0 0 Z " fill="#0F2231" transform="translate(490,253)"/>
<path d="M0 0 C1.32 0.66 2.64 1.32 4 2 C2.25 6.875 2.25 6.875 0 8 C0.20625 7.401875 0.4125 6.80375 0.625 6.1875 C1.30671915 3.71549154 1.30671915 3.71549154 -1 1 C-0.67 0.67 -0.34 0.34 0 0 Z " fill="#F4B21E" transform="translate(495,233)"/>
<path d="M0 0 C0 2.64 0 5.28 0 8 C-0.99 8.495 -0.99 8.495 -2 9 C-3.35439668 6.29120665 -3.06501451 3.99066732 -3 1 C-1 0 -1 0 0 0 Z " fill="#DF9824" transform="translate(334,154)"/>
<path d="M0 0 C0.66 0.33 1.32 0.66 2 1 C2 1.66 2 2.32 2 3 C-0.31 3.33 -2.62 3.66 -5 4 C-5 3.34 -5 2.68 -5 2 C-2.625 0.9375 -2.625 0.9375 0 0 Z " fill="#EDAC20" transform="translate(409,32)"/>
</svg>
