<?xml version="1.0" encoding="UTF-8"?>
<svg version="1.1" xmlns="http://www.w3.org/2000/svg" width="128" height="128">
<path d="M0 0 C2.17905922 3.26858883 2.25077303 4.18927433 2.25396729 7.97216797 C2.25960693 8.99848328 2.26524658 10.02479858 2.27105713 11.08221436 C2.26700867 12.20750549 2.26296021 13.33279663 2.25878906 14.4921875 C2.2622937 15.67774231 2.26579834 16.86329712 2.26940918 18.08477783 C2.27671006 21.33681897 2.27498929 24.58869765 2.26865101 27.84073639 C2.26359063 31.24262333 2.26828257 34.64449935 2.27142334 38.04638672 C2.27506288 43.75945995 2.27026423 49.47248149 2.26074219 55.18554688 C2.24985763 61.79243297 2.25338322 68.39919562 2.264395 75.00607872 C2.27346824 80.67663823 2.27475298 86.34716057 2.26951766 92.01772499 C2.26639815 95.40537159 2.26598806 98.79296015 2.27259064 102.18060303 C2.27765204 105.95642523 2.26995078 109.73200818 2.25878906 113.5078125 C2.26283752 114.63310364 2.26688599 115.75839478 2.27105713 116.91778564 C2.26259766 118.45725861 2.26259766 118.45725861 2.25396729 120.02783203 C2.25321323 120.92084015 2.25245918 121.81384827 2.25168228 122.73391724 C2 125 2 125 0 128 C-6.91555681 128.5758692 -13.06446777 127.35322681 -19.765625 125.734375 C-20.76205017 125.4997052 -21.75847534 125.2650354 -22.78509521 125.02325439 C-24.87715206 124.52727832 -26.96798583 124.02611726 -29.05761719 123.52001953 C-32.25069634 122.74983204 -35.44898384 122.00492211 -38.6484375 121.26171875 C-40.68786205 120.77495191 -42.72693781 120.28672088 -44.765625 119.796875 C-45.71777893 119.57690857 -46.66993286 119.35694214 -47.65093994 119.13031006 C-52.6351972 117.9007706 -56.28764283 116.76514843 -60 113 C-61.67070714 109.65858572 -61.16556284 105.89868522 -61.17700195 102.22338867 C-61.18357315 101.31429245 -61.19014435 100.40519623 -61.19691467 99.46855164 C-61.21667051 96.45168989 -61.22831508 93.43487797 -61.23828125 90.41796875 C-61.24235678 89.38898279 -61.2464323 88.35999683 -61.25063133 87.29982948 C-61.27150137 81.85410385 -61.28579931 76.40840348 -61.29516602 70.96264648 C-61.30623513 65.33334179 -61.34063833 59.70443188 -61.38033772 54.07526684 C-61.40646285 49.7507096 -61.41485419 45.42624703 -61.41844749 41.10161781 C-61.42332371 39.02636358 -61.43496701 36.95111385 -61.45348549 34.87593651 C-61.47779045 31.97190296 -61.47692769 29.06889869 -61.4699707 26.16479492 C-61.48278076 25.30694397 -61.49559082 24.44909302 -61.50878906 23.56524658 C-61.4737873 19.55831854 -61.30216521 17.49297152 -59.16304016 14.00306702 C-56.33891971 11.38781159 -54.04548687 10.81471589 -50.3046875 9.953125 C-49.64999481 9.79604065 -48.99530212 9.6389563 -48.32077026 9.47711182 C-46.92758016 9.14318785 -45.53261588 8.81659286 -44.1361084 8.49682617 C-41.32383959 7.84273542 -38.53098622 7.12061765 -35.7354126 6.39904785 C-32.9157608 5.67532986 -30.09006197 4.97713821 -27.26367188 4.28027344 C-25.82609153 3.92383228 -24.38957313 3.56308314 -22.95410156 3.19824219 C-7.09940099 -0.82800789 -7.09940099 -0.82800789 0 0 Z M-17.875 60.125 C-19.55290631 62.92151052 -18.74875648 64.93690532 -18 68 C-13.36498163 69.16009399 -13.36498163 69.16009399 -9 67.875 C-7.77263677 65.97537668 -7.77263677 65.97537668 -8.1875 63.4375 C-8.84627033 60.85558728 -8.84627033 60.85558728 -11 59 C-13.83386167 58.6366844 -15.40522151 58.6431329 -17.875 60.125 Z " fill="#0C6264" transform="translate(71,0)"/>
<path d="M0 0 C5.33848672 -0.09894543 10.67643869 -0.17150414 16.015625 -0.21972656 C17.8314748 -0.23983061 19.64725995 -0.26711835 21.46289062 -0.30175781 C24.07438105 -0.35033039 26.68501498 -0.37298027 29.296875 -0.390625 C30.10743347 -0.41127014 30.91799194 -0.43191528 31.75311279 -0.45318604 C35.41572773 -0.45464111 37.52579675 -0.3629773 40.48144531 1.89941406 C43.50136971 6.07681431 43.15467047 9.78227152 43.16113281 14.77661133 C43.16858017 16.14025566 43.16858017 16.14025566 43.17617798 17.53144836 C43.1908202 20.54831694 43.19760529 23.56513293 43.203125 26.58203125 C43.20887509 28.6746979 43.21463284 30.76736452 43.22039795 32.86003113 C43.23091403 37.25247443 43.23675261 41.64489939 43.24023438 46.03735352 C43.24571809 51.66658603 43.26974103 57.29557654 43.29820633 62.92473316 C43.31682826 67.24929004 43.32203809 71.5737886 43.32357025 75.89838219 C43.32659869 77.97362274 43.33463362 80.04886222 43.34775543 82.12406349 C43.36480525 85.0279646 43.36293812 87.93127425 43.35644531 90.83520508 C43.37026749 92.12198151 43.37026749 92.12198151 43.3843689 93.43475342 C43.35163693 98.10675262 43.05111026 101.21219749 40 105 C36.72108075 106.63945963 33.09386466 106.12030178 29.4921875 106.09765625 C28.23125778 106.09553383 28.23125778 106.09553383 26.94485474 106.09336853 C24.25486725 106.08776237 21.56496241 106.07520886 18.875 106.0625 C17.05338662 106.05748579 15.23177193 106.05292275 13.41015625 106.04882812 C8.94007223 106.03779094 4.47005014 106.0205222 0 106 C0 101.38 0 96.76 0 92 C9.24 91.67 18.48 91.34 28 91 C28 65.92 28 40.84 28 15 C14.14 14.505 14.14 14.505 0 14 C0 9.38 0 4.76 0 0 Z " fill="#0C6363" transform="translate(75,11)"/>
</svg>
