<?xml version="1.0" encoding="UTF-8"?>
<svg version="1.1" xmlns="http://www.w3.org/2000/svg" width="512" height="512">
<path d="M0 0 C5.32197016 0 9.93634463 0.35177118 15.09237671 1.30854797 C15.87857222 1.44935561 16.66476774 1.59016324 17.47478735 1.73523778 C20.09543987 2.20612074 22.71442299 2.68569957 25.33349609 3.1652832 C27.21815648 3.50576547 29.10291459 3.84570723 30.98776245 4.18515015 C36.100897 5.1075467 41.21263687 6.03747122 46.32416487 6.96872354 C51.68858512 7.94469606 57.05427225 8.91365263 62.41983032 9.88334656 C72.59648899 11.72361389 82.77201756 13.57005294 92.9471451 15.41876525 C105.59272555 17.71603269 118.23970907 20.0055382 130.88671875 22.29492188 C143.81658923 24.63570065 156.74632963 26.97718097 169.67514038 29.32380676 C171.67182344 29.68612041 173.66850718 30.04843026 175.66519165 30.41073608 C179.32724993 31.07524282 182.98921529 31.74025823 186.65112305 32.40559387 C188.31334066 32.70724976 189.97556174 33.00888656 191.63778687 33.3105011 C192.33833769 33.43794576 193.03888852 33.56539043 193.76066816 33.69669706 C201.83535987 35.16086015 209.91819137 36.57379848 218 38 C218 181.88 218 325.76 218 474 C119 491.82 119 491.82 18 510 C14.37 510.66 10.74 511.32 7 512 C4.69 512 2.38 512 0 512 C0 361.52 0 211.04 0 56 C-17.82 56 -35.64 56 -54 56 C-54 193.94 -54 331.88 -54 474 C-65.22 474 -76.44 474 -88 474 C-88 324.84 -88 175.68 -88 22 C-58.96 22 -29.92 22 0 22 C0 14.74 0 7.48 0 0 Z M30.75 245.9375 C27.98431226 250.77745354 27.62016302 254.3974045 28 260 C29.70560725 265.20659054 31.87683583 268.40544662 36 272 C38.95793723 273.47896861 40.70220224 273.4355582 44 273 C48.57653527 270.16464135 51.40098495 267.19299173 53 262 C53.64289876 256.44565375 53.76291932 251.58235119 51.3125 246.5 C46.97603703 241.62677453 46.97603703 241.62677453 41 239.5625 C36.04346757 240.28532765 33.78308029 241.97764517 30.75 245.9375 Z " fill="#000000" transform="translate(191,0)"/>
</svg>
