<?xml version="1.0" encoding="UTF-8"?>
<svg version="1.1" xmlns="http://www.w3.org/2000/svg" width="128" height="128">
<path d="M0 0 C1.80078125 2.4921875 1.80078125 2.4921875 2.35546875 5.46875 C0.94347659 13.16510161 -8.49127213 19.17703817 -14.62744141 23.52612305 C-32.8698352 35.90438377 -53.40847261 41.73540014 -75.41015625 38.2734375 C-91.12939188 35.03235799 -105.12389087 28.09164197 -117.19921875 17.4921875 C-118.45992187 16.39003906 -118.45992187 16.39003906 -119.74609375 15.265625 C-126.01392403 9.44549688 -126.01392403 9.44549688 -126.765625 5.578125 C-126.01560127 1.49178884 -123.99941969 -0.57333331 -121.07421875 -3.3203125 C-120.53651855 -3.83803223 -119.99881836 -4.35575195 -119.44482422 -4.88916016 C-83.05835089 -38.80733578 -34.3001776 -32.53982634 0 0 Z M-81.19921875 -11.5078125 C-86.43760552 -4.62307561 -88.25546698 1.93915305 -87.19921875 10.4921875 C-84.72681967 18.54660101 -80.53481158 24.23754366 -73.19921875 28.4921875 C-67.34892353 31.1514126 -60.88916455 31.62486073 -54.73046875 29.734375 C-46.67567924 26.32451411 -41.61755251 21.81252176 -37.94921875 13.7421875 C-36.03473575 5.44609448 -36.95595332 -1.13330982 -41.19921875 -8.5078125 C-45.09042266 -14.34461836 -50.3627463 -17.93016501 -57.19921875 -19.5078125 C-66.47631664 -20.55445944 -74.42559686 -18.08790234 -81.19921875 -11.5078125 Z M-33.19921875 -12.5078125 C-32.99425781 -11.99734375 -32.78929688 -11.486875 -32.578125 -10.9609375 C-28.08919226 1.15273744 -28.91180148 11.54866797 -33.19921875 23.4921875 C-26.10178625 20.27685795 -20.16948054 16.48446355 -14.19921875 11.4921875 C-13.26142578 10.72068359 -13.26142578 10.72068359 -12.3046875 9.93359375 C-10.92840291 8.79582218 -9.56238886 7.64563913 -8.19921875 6.4921875 C-11.96957469 -2.64991211 -23.90517172 -8.13533301 -32.19921875 -12.5078125 C-32.52921875 -12.5078125 -32.85921875 -12.5078125 -33.19921875 -12.5078125 Z M-116.19921875 4.4921875 C-112.38823731 13.73279305 -100.48103084 18.93861384 -92.19921875 23.4921875 C-91.86921875 22.8321875 -91.53921875 22.1721875 -91.19921875 21.4921875 C-91.65296875 20.5434375 -92.10671875 19.5946875 -92.57421875 18.6171875 C-97.24669051 8.2817661 -94.85349577 -2.32804079 -91.19921875 -12.5078125 C-99.30332599 -12.5078125 -110.37293278 -0.64196875 -116.19921875 4.4921875 Z " fill="#0B6263" transform="translate(126.19921875,58.5078125)"/>
<path d="M0 0 C3.16645527 2.78264251 4.83204397 4.89624235 5.34765625 9.18359375 C5.51701194 14.13908844 5.47209478 17.93261628 2.0625 21.8125 C-1.81738372 25.22209478 -5.61091156 25.26701194 -10.56640625 25.09765625 C-14.85375765 24.58204397 -16.96735749 22.91645527 -19.75 19.75 C-21.86434978 14.51976634 -21.86434978 9.10523366 -19.75 3.875 C-14.48090281 -2.12086922 -7.29881709 -2.95058563 0 0 Z M-11.1875 8.75 C-12.05375 9.7709375 -12.05375 9.7709375 -12.9375 10.8125 C-11.88275335 14.50710876 -11.88275335 14.50710876 -9.0625 16.875 C-6.71133252 17.02915306 -6.71133252 17.02915306 -4.6875 14.875 C-4.11 14.194375 -3.5325 13.51375 -2.9375 12.8125 C-3.99224665 9.11789124 -3.99224665 9.11789124 -6.8125 6.75 C-9.16366748 6.59584694 -9.16366748 6.59584694 -11.1875 8.75 Z " fill="#0B6263" transform="translate(71.9375,52.1875)"/>
<path d="M0 0 C2.5625 0.1875 2.5625 0.1875 4.5625 2.1875 C4.5625 7.44252537 2.0273068 11.12520284 -0.671875 15.4296875 C-2.4375 17.1875 -2.4375 17.1875 -5.140625 17.4453125 C-5.89859375 17.36023438 -6.6565625 17.27515625 -7.4375 17.1875 C-8.61328125 15.046875 -8.61328125 15.046875 -9.4375 12.1875 C-8.35546875 9.328125 -8.35546875 9.328125 -6.625 6.4375 C-6.06167969 5.47328125 -5.49835937 4.5090625 -4.91796875 3.515625 C-2.82031992 0.21694769 -2.82031992 0.21694769 0 0 Z " fill="#0B6162" transform="translate(39.4375,105.8125)"/>
<path d="M0 0 C2.421875 -0.4453125 2.421875 -0.4453125 5 0 C8.47851585 3.46312419 10.64004597 7.76265803 12 12.4375 C12 13.283125 12 14.12875 12 15 C10 17 10 17 7.578125 17.38671875 C5 17 5 17 3.234375 15.20703125 C2.74453125 14.41683594 2.2546875 13.62664063 1.75 12.8125 C1.24984375 12.03519531 0.7496875 11.25789063 0.234375 10.45703125 C-1.05826761 7.88401796 -1.75582101 5.86910307 -2 3 C-1.34 2.01 -0.68 1.02 0 0 Z " fill="#0B6262" transform="translate(32,5)"/>
<path d="M0 0 C2.578125 0.390625 2.578125 0.390625 4.34375 2.21875 C4.83359375 3.01796875 5.3234375 3.8171875 5.828125 4.640625 C6.57835938 5.82398437 6.57835938 5.82398437 7.34375 7.03125 C8.48594645 9.21443563 9.22285232 10.96035394 9.578125 13.390625 C8.640625 15.640625 8.640625 15.640625 7.578125 17.390625 C5.28125 17.6484375 5.28125 17.6484375 2.578125 17.390625 C-0.90039085 13.92750081 -3.06192097 9.62796697 -4.421875 4.953125 C-4.421875 1.40814437 -3.46138352 0.55828766 0 0 Z " fill="#0B6263" transform="translate(88.421875,105.609375)"/>
<path d="M0 0 C1.13695313 0.12761719 1.13695313 0.12761719 2.296875 0.2578125 C3.47265625 2.3984375 3.47265625 2.3984375 4.296875 5.2578125 C3.21484375 8.1171875 3.21484375 8.1171875 1.484375 11.0078125 C0.92105469 11.97203125 0.35773438 12.93625 -0.22265625 13.9296875 C-1.703125 16.2578125 -1.703125 16.2578125 -2.703125 17.2578125 C-5.140625 17.4453125 -5.140625 17.4453125 -7.703125 17.2578125 C-8.363125 16.5978125 -9.023125 15.9378125 -9.703125 15.2578125 C-9.703125 10.00278713 -7.1679318 6.32010966 -4.46875 2.015625 C-2.703125 0.2578125 -2.703125 0.2578125 0 0 Z " fill="#0B6263" transform="translate(93.703125,4.7421875)"/>
<path d="M0 0 C4.55555556 0.55555556 4.55555556 0.55555556 6 2 C6.09909302 4.33160055 6.12970504 6.66629942 6.125 9 C6.12757812 10.27875 6.13015625 11.5575 6.1328125 12.875 C6 16 6 16 5 17 C2 17.125 2 17.125 -1 17 C-2.93341947 15.06658053 -2.17449133 11.62520879 -2.1875 9.0625 C-2.20167969 7.79535156 -2.21585938 6.52820313 -2.23046875 5.22265625 C-2 2 -2 2 0 0 Z " fill="#0C6263" transform="translate(62,111)"/>
<path d="M0 0 C3 0.125 3 0.125 4 1.125 C4.12557162 3.43493382 4.17575729 5.74918536 4.1875 8.0625 C4.20167969 9.32964844 4.21585938 10.59679688 4.23046875 11.90234375 C4 15.125 4 15.125 2 17.125 C-2.55555556 16.56944444 -2.55555556 16.56944444 -4 15.125 C-4.09909302 12.79339945 -4.12970504 10.45870058 -4.125 8.125 C-4.12757812 6.84625 -4.13015625 5.5675 -4.1328125 4.25 C-3.95919858 0.16496661 -3.95919858 0.16496661 0 0 Z " fill="#0B6263" transform="translate(64,-0.125)"/>
</svg>
